<svg width="55" height="62" viewBox="0 0 55 62" fill="none" xmlns="http://www.w3.org/2000/svg">
<g id="logo">
<path id="Logo" fill-rule="evenodd" clip-rule="evenodd" d="M36.5448 7.16442V4.00138C36.544 2.93987 36.1198 1.92211 35.3653 1.1718C34.6108 0.421479 33.5878 3.33915e-07 32.5212 6.31162e-07H23.1408C22.6126 -0.000294601 22.0895 0.102986 21.6014 0.303933C21.1133 0.504879 20.6697 0.799563 20.2961 1.17115C19.9225 1.54273 19.626 1.98393 19.4237 2.46955C19.2215 2.95517 19.1173 3.47569 19.1172 4.00138V7.24833C19.1172 7.61019 19.4529 7.86342 19.8195 7.77876C22.4731 7.01661 25.2216 6.63122 27.9835 6.63401C30.6596 6.63401 33.3086 6.99511 35.8689 7.6941C35.9495 7.71457 36.0337 7.71631 36.1151 7.69917C36.1965 7.68203 36.2728 7.64647 36.3382 7.59526C36.4035 7.54405 36.4562 7.47855 36.492 7.40384C36.5278 7.32912 36.5459 7.24721 36.5448 7.16442V7.16442ZM10.8373 11.3037L9.23468 9.70864C8.67272 9.14792 7.95601 8.76602 7.17556 8.61142C6.3951 8.45683 5.5861 8.5365 4.85123 8.84034C4.36312 9.04137 3.91976 9.33646 3.54666 9.70864L1.63082 11.6108C1.25613 11.981 0.958847 12.4214 0.756123 12.9066C0.553399 13.3917 0.449254 13.912 0.449709 14.4375C0.449254 14.9629 0.553399 15.4832 0.756123 15.9684C0.958847 16.4536 1.25613 16.894 1.63082 17.2641L3.20641 18.8322C3.4616 19.0824 3.8282 19.0247 4.05253 18.7745C4.98208 17.504 6.00838 16.3066 7.12237 15.1927C8.24585 14.0707 9.45988 13.0424 10.7523 12.118C11.0338 11.9487 11.0617 11.5569 10.8373 11.3037V11.3037ZM27.9556 21.3457V35.028C27.9556 35.4198 28.3802 35.7 28.7438 35.5045L40.9659 29.2091C41.2437 29.0705 41.3288 28.7326 41.1903 28.4562C38.6564 24.0323 33.953 21.0115 28.5194 20.8153C28.2379 20.8153 27.9556 21.0385 27.9556 21.3457ZM27.9556 54.3059C17.7644 54.3059 9.48536 46.0769 9.48536 35.9502C9.48536 25.8228 17.7644 17.5983 27.9556 17.5983C38.1505 17.5983 46.4274 25.8228 46.4274 35.9502C46.4274 46.0769 38.1784 54.3059 27.9556 54.3059ZM27.9556 9.87721C13.4819 9.87721 1.74224 21.5457 1.74224 35.9502C1.74224 50.3585 13.4819 62 27.9556 62C42.4293 62 54.169 50.3315 54.169 35.9232C54.169 21.515 42.4564 9.87721 27.9556 9.87721V9.87721Z" fill="#5468FF"/>
</g>
</svg>
