<svg width="62" height="58" viewBox="0 0 62 58" fill="none" xmlns="http://www.w3.org/2000/svg">
<g id="logo">
<path id="Vector" d="M48.5167 30.7016C41.0688 30.7016 35.0321 36.7972 35.0321 44.3165C35.0321 51.8365 41.0688 57.9333 48.5167 57.9333C55.9634 57.9333 62 51.8365 62 44.3165C62 36.7972 55.9634 30.7016 48.5167 30.7016ZM13.4839 30.7023C6.03728 30.7029 0 36.7972 0 44.3171C0 51.8365 6.03728 57.9327 13.4839 57.9327C20.9312 57.9327 26.9685 51.8365 26.9685 44.3171C26.9685 36.7972 20.9312 30.7023 13.4833 30.7023H13.4839ZM44.4839 13.6822C44.4839 21.2015 38.4473 27.299 31.0006 27.299C23.5527 27.299 17.5161 21.2015 17.5161 13.6822C17.5161 6.16285 23.5527 0.0666504 31.0006 0.0666504C38.4473 0.0666504 44.4833 6.16285 44.4833 13.6822H44.4839Z" fill="url(#paint0_radial_2_637)"/>
</g>
<defs>
<radialGradient id="paint0_radial_2_637" cx="0" cy="0" r="1" gradientUnits="userSpaceOnUse" gradientTransform="translate(30.9998 31.6914) scale(41.0834 38.3439)">
<stop stop-color="#FFB900"/>
<stop offset="0.6" stop-color="#F95D8F"/>
<stop offset="0.9991" stop-color="#F95353"/>
</radialGradient>
</defs>
</svg>
