<svg width="63" height="60" viewBox="0 0 63 60" fill="none" xmlns="http://www.w3.org/2000/svg">
<g id="logo">
<path id="Vector" d="M25.2249 2.07844C25.8224 1.71887 26.403 1.32233 27.0442 1.04594C27.8955 0.682673 28.7837 0.412301 29.6932 0.239458C31.3193 -0.0954182 32.9976 -0.0868494 34.6201 0.264645C36.9968 0.763516 39.1732 1.95147 40.8766 3.67971C41.6646 4.4724 42.3322 5.37583 42.8583 6.36135C44.3427 9.13989 45.8232 11.9198 47.2997 14.7012C48.1875 16.3722 49.0669 18.0465 49.9572 19.7167C51.1007 21.8657 52.2527 24.0096 53.3963 26.1587C54.2841 27.8263 55.1635 29.499 56.0512 31.1666C57.4857 33.855 58.9221 36.5434 60.3605 39.2317C60.9049 40.2541 61.5058 41.248 61.945 42.3242C62.4937 43.6684 62.8707 45.0428 62.8471 46.5096C62.832 47.4892 62.8732 48.4696 62.6519 49.4374C61.9635 52.456 60.4337 54.9284 57.9564 56.8195C57.0198 57.5353 56.0058 58.1309 54.9169 58.5132C53.8465 58.8879 52.724 59.1945 51.5509 59.1357C50.9148 59.103 50.2752 59.1307 49.6374 59.129C47.8282 59.1245 46.0547 58.6257 44.5093 57.6865C43.5189 57.0984 42.5916 56.4129 41.7997 55.5661C40.9961 54.7066 40.2766 53.7834 39.7213 52.7416C38.9016 51.2059 38.0837 49.6696 37.2675 48.1327C36.0933 45.9283 34.9206 43.7233 33.7492 41.5177C33.076 40.2483 32.4121 38.9746 31.7296 37.7102C30.9151 36.198 30.1114 34.6741 29.2986 33.1577C28.3157 31.3262 27.3227 29.4998 26.3887 27.6432C26.0571 26.9854 25.7576 26.3175 25.2855 25.7462C22.9167 22.8797 19.8915 21.6977 16.2058 22.2639C14.8207 22.4764 13.5686 23.0351 12.4191 23.8357C12.4056 23.8458 12.3947 23.8601 12.3804 23.8693C12.085 24.0668 11.7535 24.0937 11.5709 23.9357C11.4169 23.8021 11.3521 23.3594 11.4867 23.1183C11.5507 22.9998 11.6155 22.8797 11.6836 22.7629C12.4974 21.3641 13.2825 19.9494 14.15 18.5817C14.4866 18.044 14.7626 17.4685 15.1321 16.9426C15.435 16.5108 15.6462 15.9966 15.9172 15.5304C16.5904 14.3735 17.2779 13.2268 17.9527 12.0724C18.5931 10.9803 19.2217 9.87642 19.8612 8.78259C20.5008 7.68876 21.1193 6.61423 21.7782 5.54896C22.31 4.69036 23.0513 4.00399 23.7447 3.28065C24.152 2.85387 24.6283 2.52454 25.0802 2.15572L25.2249 2.07844Z" fill="#1B1F22"/>
<path id="Vector_2" d="M6.26034 34.8144C6.65079 34.7128 6.87295 34.3641 7.21796 34.1751C7.95178 33.7575 8.71441 33.3926 9.50008 33.083C11.333 32.3919 13.2935 32.1025 15.2483 32.2344C17.3546 32.3684 19.3985 33.002 21.2103 34.0827C22.9294 35.0908 24.3701 36.4132 25.4657 38.0716C27.1344 40.5969 28.0053 43.3685 27.7907 46.419C27.5013 50.5431 25.7106 53.8741 22.4447 56.4264C21.5023 57.1646 20.4597 57.7654 19.348 58.2108C17.6104 58.9056 15.7759 59.1811 13.896 59.1181C13.071 59.0796 12.25 58.9802 11.4397 58.8207C9.61464 58.5 7.89362 57.7456 6.42191 56.6213C6.0668 56.35 5.67719 56.1173 5.3894 55.7552C5.18997 55.5031 4.80877 55.4317 4.65815 55.1326C4.42085 54.6638 4.00094 54.353 3.67781 53.9624C3.00462 53.1449 2.48963 52.2469 2.01839 51.3076C1.4142 50.102 1.16343 48.8074 0.975782 47.4926C0.778974 46.059 0.809928 44.6034 1.0675 43.1795C1.08744 43.1467 1.10068 43.1103 1.10645 43.0724C1.11223 43.0345 1.11043 42.9958 1.10116 42.9585C1.26021 42.3175 1.34015 41.6614 1.59596 41.038C1.92667 40.2298 2.24727 39.42 2.74207 38.695C3.13757 38.1144 3.49184 37.4877 3.97822 36.9929C4.35268 36.6106 4.62364 36.1401 5.0932 35.8167C5.46345 35.5647 5.79584 35.2118 6.14253 34.901L6.26034 34.8144Z" fill="#1B1F22"/>
</g>
</svg>
