<svg width="62" height="56" viewBox="0 0 62 56" fill="none" xmlns="http://www.w3.org/2000/svg">
<g id="logo">
<g id="Group">
<path id="Vector (Stroke)" fill-rule="evenodd" clip-rule="evenodd" d="M15.2566 14.4708C10.8656 19.3077 7.8238 25.7227 5.68002 31.88C5.14957 33.4036 3.48446 34.2086 1.9609 33.6782C0.437345 33.1477 -0.367725 31.4826 0.162729 29.9591C2.42156 23.4713 5.78189 16.216 10.931 10.544C16.1487 4.79642 23.2337 0.657959 32.6803 0.657959C42.6641 0.657959 49.7845 7.37242 54.3751 15.3874C58.9832 23.4331 61.4391 33.3933 61.9925 41.4329C62.1033 43.0423 60.8884 44.4369 59.2789 44.5476C57.6695 44.6584 56.2749 43.4435 56.1642 41.8341C55.659 34.4947 53.3931 25.4277 49.3055 18.2909C45.2004 11.1234 39.6511 6.50009 32.6803 6.50009C25.1722 6.50009 19.5791 9.70935 15.2566 14.4708Z" fill="#1D2D35"/>
<path id="Vector (Stroke)_2" fill-rule="evenodd" clip-rule="evenodd" d="M29.7561 3.5446C29.7561 1.93134 31.0639 0.623535 32.6772 0.623535C42.6631 0.623535 49.7832 7.34916 54.3727 15.3713C58.9803 23.4252 61.436 33.3934 61.9894 41.4328C62.0288 42.0043 61.8992 42.5747 61.6168 43.0732C58.9537 47.7743 54.5172 50.8456 49.4519 52.7276C44.4036 54.6033 38.5588 55.3688 32.7041 55.3711C27.7093 55.4604 22.7558 54.4512 18.1832 52.4142C13.6022 50.3735 9.51385 47.3504 6.19693 43.5558C5.49602 42.754 5.28706 41.6342 5.65159 40.6335L8.39621 41.6334C5.65159 40.6335 5.65176 40.6331 5.65195 40.6326L5.65374 40.6277L5.65784 40.6165L5.67183 40.5785C5.6837 40.5464 5.70066 40.5008 5.72252 40.4426C5.76622 40.3262 5.8296 40.1594 5.91127 39.9492C6.07448 39.5291 6.3114 38.9342 6.61094 38.2224C7.2074 36.805 8.06434 34.8946 9.09377 32.9658C10.1094 31.0628 11.3591 29.0155 12.7654 27.4016C14.0399 25.9388 16.0488 24.1202 18.643 24.1023L18.6631 24.1023C20.495 24.1023 21.9914 24.9579 23.0541 25.7631C24.129 26.5776 25.1057 27.6116 25.8868 28.4511C25.9737 28.5445 26.0582 28.6355 26.1405 28.7241C26.8728 29.5125 27.4313 30.1138 27.9607 30.563C27.9974 30.5941 28.0321 30.6229 28.065 30.6495C28.2248 30.4795 28.412 30.2631 28.6248 29.9945C29.4623 28.9369 30.4032 27.4462 31.314 25.8494C32.2127 24.274 33.0305 22.6869 33.6267 21.4864C33.9237 20.8882 34.1634 20.3907 34.328 20.0446C34.4102 19.8716 34.4735 19.7367 34.5158 19.6463L34.563 19.5448L34.5742 19.5207L34.5766 19.5155C35.2503 18.0497 36.985 17.4071 38.4509 18.0809C39.9167 18.7547 40.5588 20.4891 39.885 21.955L37.2309 20.735C39.885 21.955 39.8851 21.9546 39.885 21.955L39.883 21.9593L39.8788 21.9683L39.864 22.0004L39.8091 22.1185C39.7615 22.2203 39.6924 22.3673 39.6041 22.5532C39.4274 22.9248 39.1731 23.4526 38.8592 24.0847C38.2334 25.3449 37.3614 27.0386 36.3887 28.7441C35.428 30.4282 34.3158 32.2184 33.2047 33.6214C32.654 34.3168 32.0277 35.0147 31.3485 35.5647C30.7521 36.0477 29.679 36.7796 28.2915 36.7796C26.468 36.7796 25.0399 35.7463 24.1814 35.018C23.3655 34.3259 22.5511 33.4466 21.8685 32.7097C21.7799 32.6141 21.6936 32.5209 21.6098 32.4308C20.8008 31.5614 20.1424 30.8867 19.5259 30.4195C19.0368 30.0489 18.7762 29.9674 18.6926 29.9495C18.6895 29.9508 18.6853 29.9526 18.68 29.9548C18.5778 29.997 18.0696 30.2071 17.17 31.2396C16.1865 32.3682 15.1792 33.9714 14.2478 35.7166C13.3301 37.436 12.5498 39.1717 11.9957 40.4884C11.9214 40.665 11.8514 40.8335 11.7859 40.9929C14.3131 43.5556 17.2881 45.6198 20.5605 47.0776C24.362 48.7711 28.4767 49.607 32.6226 49.5295C32.6408 49.5292 32.659 49.529 32.6772 49.529C38.0886 49.529 43.2061 48.8159 47.4171 47.2513C51.2905 45.8121 54.2489 43.7135 56.0898 40.9192C55.4663 33.7505 53.2216 25.1241 49.3018 18.2724C45.1955 11.0949 39.646 6.46567 32.6772 6.46567C31.0639 6.46567 29.7561 5.15786 29.7561 3.5446ZM27.5524 31.1101C27.5526 31.1088 27.5659 31.0995 27.5918 31.0857C27.5652 31.1044 27.5522 31.1113 27.5524 31.1101Z" fill="#1D2D35"/>
</g>
</g>
</svg>
