<svg width="63" height="54" viewBox="0 0 63 54" fill="none" xmlns="http://www.w3.org/2000/svg">
<g id="logo">
<path id="Vector" d="M14.0516 11.9064C15.1363 11.8917 16.1925 11.5566 17.0873 10.9432C17.9821 10.3299 18.6756 9.46562 19.0806 8.45918C19.4855 7.45274 19.5839 6.34902 19.3633 5.28683C19.1426 4.22464 18.6129 3.2514 17.8406 2.48947C17.0684 1.72755 16.0881 1.21097 15.023 1.00468C13.9579 0.798386 12.8557 0.911599 11.8548 1.33008C10.8539 1.74857 9.99905 2.45364 9.39779 3.35664C8.79653 4.25964 8.47569 5.32026 8.47559 6.40512C8.47751 7.13332 8.6236 7.85393 8.90543 8.52539C9.18725 9.19685 9.59924 9.80585 10.1176 10.3173C10.636 10.8287 11.2505 11.2325 11.9257 11.5052C12.6009 11.778 13.3234 11.9143 14.0516 11.9064V11.9064Z" fill="#FF3366"/>
<path id="Vector_2" d="M2.48705 41.3457C2.17131 42.6993 2.00608 44.0836 1.99439 45.4735C1.99439 50.318 4.61443 53.5351 10.2053 53.5351C14.8333 53.5351 18.5805 50.7882 21.2826 46.3468L19.633 52.9678H28.8217L34.0469 31.9031C35.3606 26.566 37.906 23.8041 41.7577 23.8041C44.7957 23.8041 46.6843 25.6852 46.6843 28.8053C46.7016 29.8158 46.5631 30.8228 46.2737 31.7911L43.5641 41.4949C43.1782 42.8266 42.9847 44.2065 42.9893 45.5929C42.9893 50.1911 45.6989 53.5575 51.357 53.5575C56.2015 53.5575 60.0606 50.4374 62.188 42.9729L58.605 41.5248C56.7986 46.526 55.2385 47.4292 54.0069 47.4292C52.7753 47.4292 52.1184 46.6156 52.1184 44.9734C52.1534 44.1116 52.2912 43.2571 52.5289 42.428L55.1564 32.9929C55.7471 31.0571 56.0514 29.0452 56.0596 27.0213C56.0596 19.9599 51.79 16.2799 46.6245 16.2799C41.7801 16.2799 36.861 20.6466 34.3977 25.2373L36.2041 16.9816H22.1709L20.2003 24.252H26.769L22.7158 40.435C19.5434 47.4889 13.7136 47.6083 13.012 47.4441C11.8102 47.1679 11.0413 46.6977 11.0413 45.1525C11.0795 43.8896 11.2726 42.6362 11.6161 41.4203L17.7668 17.004H2.15861L0.187988 24.2744H6.66716L2.48705 41.3457Z" fill="#FF3366"/>
</g>
</svg>
