<svg width="62" height="62" viewBox="0 0 62 62" fill="none" xmlns="http://www.w3.org/2000/svg">
<g id="logo">
<path id="Vector" d="M61.4141 58.7358L49.7428 47.0626C49.3742 46.7012 48.8786 46.4988 48.3624 46.4988C47.8462 46.4988 47.3505 46.7012 46.9819 47.0626L35.3106 58.7358C35.0323 59.0012 34.8413 59.345 34.7631 59.7216C34.685 60.0981 34.7233 60.4896 34.8731 60.8438C35.0229 61.198 35.2769 61.4982 35.6015 61.7045C35.9261 61.9108 36.3058 62.0133 36.6901 61.9985H60.0347C60.4167 62.0081 60.7928 61.9024 61.114 61.6952C61.4352 61.488 61.6866 61.1889 61.8354 60.8369C61.9842 60.4849 62.0236 60.0962 61.9485 59.7215C61.8734 59.3467 61.6872 59.0033 61.4141 58.7358Z" fill="#C3C6CC"/>
<path id="Vector_2" d="M61.8016 16.8076L58.1456 5.95386C57.9806 5.46301 57.7176 5.01082 57.3725 4.62476L0.441895 61.5534C0.775995 61.8524 1.21241 62.0113 1.66056 61.9971H17.8307C18.2826 61.9993 18.7305 61.9123 19.1488 61.7411C19.567 61.5699 19.9474 61.3178 20.268 60.9993L61.0266 20.2408C61.4696 19.8019 61.7779 19.2455 61.9152 18.6373C62.0525 18.029 62.0131 17.3942 61.8016 16.8076V16.8076Z" fill="#E1E3E6"/>
<path id="Vector_3" d="M56.0441 3.84797L45.1904 0.193904C44.6038 -0.0175996 43.969 -0.0570242 43.3607 0.0802822C42.7524 0.217589 42.1961 0.525902 41.7572 0.96889L0.996739 41.7274C0.355549 42.3762 -0.00252382 43.2525 0.000879955 44.1647V60.3348C-0.0133532 60.783 0.145532 61.2194 0.444558 61.5535L57.3752 4.62496C56.9885 4.27869 56.5357 4.01437 56.0441 3.84797V3.84797Z" fill="#C3C6CC"/>
</g>
</svg>
