<svg width="62" height="62" viewBox="0 0 62 62" fill="none" xmlns="http://www.w3.org/2000/svg">
<g id="logo">
<path id="Vector" d="M13.4302 -0.000976562H48.5678C55.9807 -0.000976562 61.999 6.01737 61.999 13.4302V48.5678C61.999 55.9807 55.9807 61.999 48.5678 61.999H13.4302C6.01737 61.999 -0.000976562 55.9807 -0.000976562 48.5678V13.4302C-0.000976562 6.01737 6.01737 -0.000976562 13.4302 -0.000976562Z" fill="#FFD02F"/>
<path id="Vector_2" d="M43.086 7.74231H36.2787L41.9484 17.7056L29.4713 7.74231H22.664L28.9025 19.9258L15.8567 7.74231H9.04932L15.8567 23.2469L9.04932 54.2561H15.8567L28.9025 21.0267L22.664 54.2561H29.4713L41.9484 18.8249L36.2787 54.2561H43.086L55.5631 15.4854L43.086 7.74231Z" fill="#050038"/>
</g>
</svg>
