<svg width="63" height="62" viewBox="0 0 63 62" fill="none" xmlns="http://www.w3.org/2000/svg">
<g id="logo">
<path id="Logo" d="M31.149 0C13.9873 0 0 13.8217 0 31C0 39.2217 3.28175 47.1067 9.12331 52.9203C14.9649 58.7339 22.8877 62 31.149 62C39.4102 62 47.3331 58.7339 53.1746 52.9203C59.0162 47.1067 62.298 39.2217 62.298 31C62.298 13.8217 48.3107 0 31.149 0ZM31.149 46.5C22.5185 46.5 15.5745 39.5892 15.5745 31C15.5745 22.4108 22.5185 15.5 31.149 15.5C39.7794 15.5 46.7234 22.4108 46.7234 31C46.7234 39.5892 39.7794 46.5 31.149 46.5Z" fill="#00297A"/>
</g>
</svg>
