<svg width="62" height="60" viewBox="0 0 62 60" fill="none" xmlns="http://www.w3.org/2000/svg">
<g id="logo">
<path id="Logo" d="M27.5383 0.771423C37.045 0.771423 51.3567 3.71643 58.0733 10.3814C59.7783 12.0864 62 15.3931 62 20.3014C62 28.9814 55.025 42.2597 47.3783 50.0097C43.4 53.9881 37.0967 59.2064 28.5717 59.2064C20.2533 59.2064 13.8983 53.5231 12.09 51.7148C5.06333 44.6364 0 33.9414 0 23.9181C0 17.6148 1.80833 12.0864 6.355 7.48809C10.5917 3.19976 17.8767 0.771423 27.5383 0.771423ZM39.3183 35.3364C42.5217 32.1331 43.4 28.1548 43.4 25.9848C43.4 24.3831 42.9867 22.0581 41.0233 20.0948C37.975 17.0464 34.6683 16.2198 31 16.2198C26.4017 16.2198 23.3017 17.6664 21.235 19.7331C19.6333 21.3347 18.2383 23.8664 18.2383 27.4314C18.2383 30.9964 20.0983 34.4064 22.165 36.4731C24.0767 38.3848 27.0217 39.7798 30.07 39.7798C33.1183 39.7798 36.115 38.5398 39.3183 35.3364Z" fill="#5952FF"/>
</g>
</svg>
