<svg width="50" height="63" viewBox="0 0 50 63" fill="none" xmlns="http://www.w3.org/2000/svg">
<g id="logo">
<path id="Vector" d="M17.9566 42.2401V44.3339C17.9566 50.0513 17.9599 55.7684 17.9663 61.4851C17.9663 61.8989 17.8816 62.0163 17.4486 62.0134C13.7653 61.9928 10.082 61.9928 6.39865 62.0134C5.91755 62.0134 5.7713 61.9258 5.7713 61.4091C5.78797 45.3307 5.79248 29.2523 5.78478 13.1739C5.78478 13.0459 5.78478 12.9179 5.78478 12.789C5.7742 12.0385 5.60003 11.8374 4.85913 11.8268C3.60827 11.8066 2.35741 11.7989 1.11232 11.8172C0.754377 11.8229 0.655295 11.7296 0.656257 11.3659C0.671011 8.06683 0.672596 4.76774 0.661049 1.46867C0.661049 1.18001 0.667792 1.002 1.05364 1.00681C4.54355 1.04433 8.03344 0.962547 11.5224 1.05492C12.5484 1.06613 13.5607 1.29266 14.4937 1.71982C15.835 2.35391 16.6202 3.40848 16.9358 4.84023C16.9589 4.94415 16.9204 5.06924 17.058 5.17412C17.6496 4.55866 18.2816 3.98328 18.9497 3.45178C21.2118 1.70538 23.776 0.675832 26.5905 0.259198C30.0871 -0.25943 33.5184 0.0196093 36.8187 1.31762C41.4508 3.13522 44.6992 6.45 46.7977 10.9021C49.159 15.9123 49.6997 21.2198 49.1426 26.6717C48.7683 30.3377 47.7282 33.8026 45.797 36.9615C42.8142 41.8398 38.5565 44.9227 32.8958 45.9706C29.3145 46.6335 25.8034 46.4266 22.4078 45.0084C20.932 44.3905 19.5614 43.5465 18.3454 42.5066C18.229 42.4075 18.1395 42.2584 17.9566 42.2401Z" fill="#26292C"/>
<path id="Vector_2" d="M17.6953 23.2674C17.7386 20.7656 18.0609 18.2764 19.2271 15.9671C20.4078 13.6309 22.2099 12.0038 24.7463 11.261C28.9406 10.0342 33.078 11.7642 35.1901 15.6063C36.7017 18.3563 37.1097 21.3304 36.9682 24.4105C36.8672 26.6043 36.4005 28.7067 35.3537 30.66C33.1512 34.7696 28.4412 36.641 24.1681 35.0861C21.9636 34.2827 20.4694 32.6883 19.3927 30.6667C18.1707 28.3738 17.7251 25.8913 17.6953 23.2674Z" fill="#FEFEFE"/>
</g>
</svg>
