<svg width="63" height="62" viewBox="0 0 63 62" fill="none" xmlns="http://www.w3.org/2000/svg">
<g id="logo">
<path id="Logo" d="M31.1068 0.0800745C48.2604 0.128334 62.1237 14.0087 62.0726 31.0856C62.0201 48.1384 48.0829 61.9677 31.006 61.9109C13.8937 61.8541 0.0246196 47.9695 0.0728795 30.9451C0.122559 13.8824 14.047 0.0332341 31.1068 0.0800745ZM32.8101 26.887C32.8101 32.0309 32.8101 37.1753 32.8101 42.3202C32.8101 42.6864 32.7022 43.0555 33.3424 43.0455C36.2976 42.9944 39.2585 43.1066 42.2066 42.9533C49.7791 42.563 55.0281 35.1465 53.0423 27.8423C51.7862 23.215 47.3292 18.4742 40.0633 18.9866C39.7453 19.0093 39.6673 19.1285 39.6701 19.4124C39.6815 20.6142 39.6815 21.8174 39.6701 23.022C39.6701 23.3271 39.7695 23.4478 40.0761 23.435C40.5487 23.4194 41.0228 23.4222 41.4955 23.435C45.4698 23.5457 48.5173 26.3831 48.9587 30.3901C49.3547 33.9812 46.814 37.4687 43.1264 38.3473C41.4231 38.7533 39.6871 38.475 37.9696 38.5744C37.3508 38.6099 37.2486 38.3927 37.25 37.8264C37.2713 31.9969 37.2642 26.1688 37.2628 20.3393C37.2628 18.5466 37.2883 16.7524 37.2458 14.9597C37.1961 12.903 35.5496 11.1046 33.5553 10.7994C32.9776 10.71 32.7902 10.825 32.7931 11.4566C32.82 16.5977 32.8087 21.7431 32.8087 26.887H32.8101ZM29.3411 35.1622C29.3411 29.9955 29.3411 24.8289 29.3524 19.6622C29.3524 19.164 29.2715 18.9724 28.708 18.9795C25.9657 19.0121 23.2234 18.9624 20.4754 19.0022C12.4501 19.1214 6.81081 27.0105 9.24935 34.6455C10.6546 39.0457 14.9383 43.4203 22.024 43.0384C22.43 43.0172 22.4754 42.8426 22.4711 42.5118C22.4569 41.3763 22.4385 40.2408 22.4711 39.1152C22.4896 38.6142 22.2923 38.5233 21.8594 38.5474C21.3881 38.5772 20.914 38.5602 20.44 38.5474C16.599 38.4055 13.5601 35.4886 13.1669 31.5583C12.8121 28.0027 15.3258 24.5578 18.9141 23.6749C20.5464 23.2718 22.2086 23.4804 23.8565 23.4393C24.8685 23.4137 24.8685 23.4393 24.8685 24.4414C24.8685 31.8497 24.8685 39.2571 24.8685 46.6636C24.8685 48.9985 26.3802 50.7941 28.5505 51.1958C29.2034 51.3164 29.3382 51.1646 29.334 50.5216C29.3283 45.4003 29.3397 40.2805 29.3397 35.1565L29.3411 35.1622Z" fill="#2DA01D"/>
</g>
</svg>
