<svg width="62" height="62" viewBox="0 0 62 62" fill="none" xmlns="http://www.w3.org/2000/svg">
<g id="logo">
<path id="Vector" d="M30.5984 31.1456C30.4961 30.5256 29.9783 30.2156 29.5908 29.8187C21.5676 21.7873 13.5403 13.7589 5.5089 5.7337C3.74182 3.96972 1.92821 2.25534 0.294434 0.153436H1.59338C21.2049 0.153436 40.8164 0.148273 60.428 0.137939C61.4107 0.137939 62.0029 0.137945 61.9998 1.48031C61.9522 21.2964 61.9398 41.1136 61.9625 60.9318C61.9625 61.2201 61.9347 61.5115 61.9161 61.8619C61.2743 61.7038 61.017 61.2232 60.676 60.8791C51.2515 51.4733 41.8322 42.0633 32.4181 32.6492C31.9872 32.2183 31.6369 31.6726 30.9828 31.5238C30.9796 31.4235 30.9379 31.3282 30.8663 31.2577C30.7947 31.1873 30.6988 31.1472 30.5984 31.1456Z" fill="url(#paint0_linear_2_1684)"/>
<path id="Vector_2" d="M30.5984 31.1456C30.6978 31.1479 30.7925 31.188 30.8633 31.2577C30.9342 31.3274 30.9758 31.4214 30.9797 31.5207V61.71C30.2016 61.5519 29.9102 61.0248 29.532 60.6466C25.384 56.4759 21.2443 52.3 17.1128 48.1189C16.6075 47.6074 16.0433 47.1517 15.5069 46.6711L15.4542 46.6185C13.2841 44.4483 11.1326 42.2441 8.94388 40.0678C6.07934 37.1971 3.20245 34.3388 0 31.1456H30.5984Z" fill="url(#paint1_linear_2_1684)"/>
<path id="Vector_3" d="M15.506 46.68V61.539L0.718262 46.6273H15.4533L15.506 46.68Z" fill="url(#paint2_linear_2_1684)"/>
</g>
<defs>
<linearGradient id="paint0_linear_2_1684" x1="4.28929" y1="2.41072" x2="61.8606" y2="61.7953" gradientUnits="userSpaceOnUse">
<stop stop-color="#C191C2"/>
<stop offset="0.537489" stop-color="#849DDF"/>
<stop offset="0.611111" stop-color="#A0B7EC"/>
<stop offset="1" stop-color="#D0E9FF"/>
</linearGradient>
<linearGradient id="paint1_linear_2_1684" x1="2.00566" y1="32.2711" x2="30.4988" y2="62.07" gradientUnits="userSpaceOnUse">
<stop stop-color="#C191C2"/>
<stop offset="0.537489" stop-color="#849DDF"/>
<stop offset="0.611111" stop-color="#A0B7EC"/>
<stop offset="1" stop-color="#D0E9FF"/>
</linearGradient>
<linearGradient id="paint2_linear_2_1684" x1="1.67563" y1="47.1764" x2="15.5871" y2="61.4111" gradientUnits="userSpaceOnUse">
<stop stop-color="#C191C2"/>
<stop offset="0.537489" stop-color="#849DDF"/>
<stop offset="0.611111" stop-color="#A0B7EC"/>
<stop offset="1" stop-color="#D0E9FF"/>
</linearGradient>
</defs>
</svg>
