<svg width="62" height="44" viewBox="0 0 62 44" fill="none" xmlns="http://www.w3.org/2000/svg">
<g id="logo">
<path id="Vector" fill-rule="evenodd" clip-rule="evenodd" d="M54.8179 34.3974C54.2633 34.3974 53.7577 34.1842 53.3774 33.8414C53.5071 32.7179 53.5935 31.5828 53.6079 30.4275C53.9536 30.1942 54.3714 30.053 54.8179 30.053C56.0063 30.053 56.9786 31.0282 56.9786 32.2295C56.9795 32.5139 56.9243 32.7956 56.8162 33.0586C56.708 33.3216 56.549 33.5606 56.3483 33.762C56.1475 33.9634 55.909 34.1232 55.6464 34.2323C55.3838 34.3413 55.1023 34.3974 54.8179 34.3974ZM7.1821 34.3974C6.89775 34.3974 6.61619 34.3413 6.35358 34.2323C6.09096 34.1232 5.85245 33.9634 5.65172 33.762C5.45099 33.5606 5.29198 33.3216 5.18382 33.0586C5.07566 32.7956 5.02047 32.5139 5.02142 32.2295C5.02142 31.0282 5.99373 30.0516 7.1821 30.0516C7.62864 30.0516 8.04637 30.1956 8.39208 30.4275C8.40649 31.5828 8.49291 32.7179 8.62255 33.8414C8.22764 34.1984 7.71447 34.3965 7.1821 34.3974ZM54.6767 24.8616C54.0689 24.8616 53.4855 24.9452 52.9251 25.082C50.7731 16.5228 43.7811 9.89963 35.0462 8.33385C34.6573 8.26183 34.3044 8.21142 33.9083 8.161C33.9731 6.01616 34.0739 3.53714 37.2112 1.30732L36.7143 0.0498047C36.7143 0.0498047 30.601 1.95985 29.8923 7.22038C29.5869 5.78857 26.7363 3.99809 25.3246 3.65814L24.6231 4.7961C24.6231 4.7961 26.4943 5.73816 26.9494 8.33385C18.2174 9.90251 11.2269 16.5243 9.07486 25.082C8.50142 24.9389 7.91284 24.8654 7.32183 24.8631C3.28567 24.8631 0 28.1588 0 32.2295C0 36.2916 3.28567 39.5946 7.32183 39.5946C8.2682 39.5946 9.16993 39.4044 9.99819 39.0789C10.623 40.6466 11.4211 42.1396 12.3778 43.5299L18.4565 39.4102L18.4047 39.3411C16.7971 37.2639 15.8133 34.2044 15.6491 31.1593C15.4662 27.803 16.2814 24.4669 18.4148 22.5065C22.811 18.744 27.5976 20.4582 30.5967 24.0665H31.4033C34.4024 20.4582 39.189 18.744 43.5867 22.5065C45.7186 24.4669 46.5339 27.803 46.3524 31.1607C46.1867 34.2044 45.2029 37.2639 43.5953 39.3425L43.5435 39.4088L49.6222 43.5299C50.5786 42.1394 51.3768 40.6465 52.0018 39.0789C52.8532 39.417 53.7606 39.5919 54.6767 39.5946C58.7143 39.5946 62 36.2916 62 32.2295C62 28.1574 58.7143 24.8616 54.6767 24.8616Z" fill="#00BF6F"/>
</g>
</svg>
