<svg width="62" height="44" viewBox="0 0 62 44" fill="none" xmlns="http://www.w3.org/2000/svg">
<g id="logo">
<path id="Vector" d="M45.9287 13.1522L40.4967 30.1058C40.4967 28.8074 36.7505 0.6875 36.7505 0.6875C28.1341 0.6875 23.5637 6.73438 21.1662 13.1522L14.5353 30.1429C14.5353 28.9187 13.5988 13.3006 13.5988 13.3006C13.279 9.91965 11.7181 6.77223 9.21188 4.45449C6.70566 2.13676 3.4281 0.809665 0 0.724591L7.0429 43.3125C16.0338 43.3125 20.9039 37.2656 23.4139 30.8477L29.0332 16.3797C29.0332 16.9733 32.7795 43.3125 32.7795 43.3125C36.456 43.3078 40.0354 42.1439 42.9991 39.9895C45.9628 37.8351 48.1567 34.802 49.2628 31.33L62 0.6875C53.0091 0.6875 48.2888 6.73438 45.8912 13.1522H45.9287Z" fill="#4353FF"/>
</g>
</svg>
